<svg width="1377" height="337" viewBox="0 0 1377 337" fill="none" xmlns="http://www.w3.org/2000/svg">
<path d="M271.403 37.1353C281.758 45.8373 291.516 55.4914 299.469 66.4989C300.296 67.6211 300.296 67.6211 301.139 68.7659C305.038 74.1594 308.521 79.7322 311.789 85.5378C312.262 86.3714 312.735 87.205 313.223 88.0638C334.21 126.5 338.134 172.814 326.703 214.871C316.513 249.479 296.058 281.356 267.049 302.844C266.31 303.401 265.571 303.959 264.81 304.534C236.082 325.827 202.237 336.495 166.748 336.531C164.245 336.542 161.742 336.553 159.163 336.564C122.471 335.402 86.7019 321.208 58.9101 296.935C58.427 296.519 57.9439 296.102 57.4461 295.673C48.6887 287.918 40.4793 279.545 33.6222 270.018C33.0722 269.271 32.5222 268.523 31.9556 267.753C6.25759 232.226 -3.81554 188.396 1.28284 144.747C8.34939 101.152 30.4517 60.0359 66.0426 33.6732C66.7815 33.1155 67.5203 32.5578 68.2816 31.9832C128.731 -12.8227 213.187 -10.0461 271.403 37.1353Z" fill="#2C2F38"/>
<path d="M213.22 31.036C226.885 35.9611 239.868 42.5484 251.476 51.3879C252.289 52.0031 253.101 52.6184 253.938 53.2523C280.288 74.0654 302.83 106.399 307.239 140.674C307.552 143.288 307.539 145.23 307.239 147.895C298.411 155.344 277.165 151.538 266.673 151.506C259.946 151.499 253.218 151.493 246.286 151.486C230.079 151.178 230.079 151.178 226.837 149.208C225.307 146.277 225.307 146.277 223.757 142.684C221.187 137.026 218.517 132.255 214.517 127.543C214.059 126.975 213.601 126.406 213.129 125.82C206.347 117.718 197.419 112.353 187.77 108.381C185.339 107.191 185.339 107.191 183.393 103.909C183.165 91.56 183.081 79.2081 183.069 66.857C183.049 60.0469 183.029 53.2368 183.008 46.2204C183.393 29.7229 183.393 29.7229 186.635 25.7839C192.74 22.6936 207.176 29.0206 213.22 31.036Z" fill="#2FA7CB"/>
<path d="M146.445 25.7951C153.802 34.7337 150.043 56.245 150.011 66.8682C150.005 73.68 149.998 80.4917 149.991 87.5099C149.687 103.92 149.687 103.92 147.742 107.203C144.847 108.752 144.847 108.752 141.299 110.321C135.71 112.923 130.998 115.626 126.345 119.676C125.783 120.14 125.221 120.604 124.643 121.082C116.641 127.948 111.342 136.988 107.419 146.758C106.244 149.22 106.244 149.22 103.002 151.189C90.8054 151.421 78.606 151.505 66.4074 151.517C56.3184 151.548 56.3184 151.548 46.0256 151.579C29.7318 151.189 29.7318 151.189 25.8414 147.907C22.6402 126.692 38.9747 99.0859 50.7645 82.7886C51.7414 81.5093 52.7277 80.2373 53.7229 78.9726C54.2311 78.3235 54.7393 77.6745 55.2629 77.0057C63.557 66.7517 72.8784 57.7546 83.5497 50.0861C84.3028 49.5309 85.0558 48.9757 85.8318 48.4038C101.15 37.5419 126.872 22.7673 146.445 25.7951Z" fill="#EEC319"/>
<path d="M266.684 185C273.41 184.979 280.136 184.959 287.066 184.938C303.36 185.328 303.36 185.328 307.25 188.61C310.454 210.021 293.952 237.764 282.036 254.221C278.542 258.8 274.881 263.203 270.939 267.392C270.139 268.245 269.338 269.098 268.513 269.977C247.703 291.627 220.535 305.966 191.185 311.378C188.713 311.378 188.713 311.378 186.646 310.722C179.29 301.783 183.049 280.272 183.08 269.649C183.087 262.837 183.094 256.025 183.1 249.007C183.404 232.597 183.404 232.597 185.35 229.314C186.661 228.672 187.981 228.042 189.331 227.488C195.649 224.762 201.554 221.393 206.747 216.84C207.256 216.427 207.765 216.013 208.29 215.586C216.751 208.413 221.56 199.226 225.794 189.105C231.046 180.093 259.174 185.007 266.684 185Z" fill="#24AD5E"/>
<path d="M66.4073 184.988C73.1349 184.995 79.8626 185.002 86.7941 185.009C103.002 185.317 103.002 185.317 106.244 187.286C106.878 188.614 107.5 189.95 108.047 191.317C110.74 197.715 114.067 203.693 118.564 208.951C118.972 209.466 119.381 209.982 119.802 210.513C126.65 218.794 135.235 223.553 144.915 227.8C147.742 229.303 147.742 229.303 149.687 232.585C149.916 244.934 149.999 257.286 150.011 269.637C150.041 279.853 150.041 279.853 150.072 290.274C149.687 306.771 149.687 306.771 146.445 310.711C126.122 313.854 99.0518 297.915 83.5495 286.42C82.3835 285.556 82.3835 285.556 81.194 284.676C76.7927 281.326 72.6206 277.792 68.6361 273.946C67.7928 273.134 66.9494 272.323 66.0805 271.486C46.1993 251.896 29.0429 223.581 25.8412 195.164C25.7752 194.58 25.7092 193.996 25.6411 193.395C25.5575 191.8 25.5575 191.8 25.8412 188.599C34.6694 181.15 55.9152 184.957 66.4073 184.988Z" fill="#BF3A2B"/>
<path d="M189.9 134.776C198.496 141.209 203.873 150.197 206.507 160.644C208.151 171.821 205.508 183.069 199.18 192.344C192.523 201.084 183.642 206.864 172.816 208.667C160.61 210.187 150.505 207.187 140.714 199.661C134.601 194.37 131.037 188.328 128.301 180.732C128.071 180.099 127.841 179.466 127.604 178.814C124.562 168.571 126.332 158.219 130.935 148.809C136.984 138.133 146.034 131.88 157.479 128.211C168.737 125.348 180.294 128.804 189.9 134.776Z" fill="#A3A3A2"/>
<path d="M241.529 67.2263C245.904 68.1122 248.305 70.6589 251.498 73.7093C252.312 74.4811 253.127 75.2529 253.965 76.0481C263.631 85.5153 278.702 101.032 280.352 115.234C280.028 117.696 280.028 117.696 279.015 119.296C276.893 120.673 275.415 120.978 272.896 120.978C269.983 119.113 268.793 117.017 267.303 113.921C260.3 100.165 250.229 88.2743 238.692 78.1818C236.047 75.8644 236.047 75.8644 235.693 73.1759C235.937 71.0833 235.937 71.0833 237.233 69.1958C239.179 67.8007 239.179 67.8007 241.529 67.2263Z" fill="#FBFDFE"/>
<path d="M75.7687 86.8396C77.5355 88.445 78.248 89.4751 78.6662 91.8429C78.2086 95.1832 76.4562 97.1779 74.5124 99.8878C68.2858 108.849 63.6357 117.729 59.6496 127.923C58.3352 130.672 57.5777 131.927 55.0196 133.452C53.0744 133.821 53.0744 133.821 51.1291 133.452C49.1477 131.936 48.1009 130.846 47.34 128.438C46.7817 116.27 59.6239 99.2916 66.6909 90.1221C69.8774 86.6789 71.081 85.6939 75.7687 86.8396Z" fill="#FEFDFB"/>
<path d="M262.51 238.505C264.913 240.198 265.632 241.282 266.32 244.168C264.442 253.674 251.859 263.534 244.355 268.705C241.178 269.233 239.858 269.2 237.222 267.31C235.926 265.422 235.926 265.422 235.439 263.576C236.506 258.984 240.773 255.884 244.2 252.933C248.198 249.359 251.938 245.467 255.418 241.378C257.825 238.578 258.88 238.073 262.51 238.505Z" fill="#FBFDFC"/>
<path d="M73.3144 238.421C76.9005 239.504 78.486 241.692 80.9559 244.496C86.9272 251.234 86.9272 251.234 93.4783 257.38C97.0252 260.545 97.0251 260.545 97.4498 263.371C97.1661 265.422 97.1661 265.422 95.8693 267.31C93.9241 268.705 93.9241 268.705 91.5736 269.279C82.7533 267.493 74.5972 256.339 69.0009 249.707C67.1223 246.692 66.593 245.276 67.3394 241.788C69.2479 239.478 70.3099 238.543 73.3144 238.421Z" fill="#FDFBFB"/>
<path d="M168.977 150.742C170.957 150.75 172.936 150.759 174.975 150.768C176.954 150.759 178.934 150.751 180.973 150.742C185.998 151.178 185.998 151.178 189.24 154.46C189.645 156.758 189.645 156.758 189.24 159.056C185.998 162.339 185.998 162.339 180.973 162.798C178.994 162.795 177.014 162.793 174.975 162.79C172.006 162.814 172.006 162.814 168.977 162.839C163.952 162.339 163.952 162.339 160.71 158.399C160.305 156.389 160.305 156.389 160.71 154.46C163.952 151.178 163.952 151.178 168.977 150.742Z" fill="#2D3039"/>
<path d="M104.947 59.9225C107.082 61.3083 107.468 62.3145 108.23 64.7643C108.189 67.1442 108.189 67.1442 107.095 69.0727C104.05 71.923 100.657 74.088 97.1662 76.3353C96.4842 76.8143 95.8021 77.2933 95.0994 77.7868C92.9343 79.1813 91.9042 79.3955 89.3853 78.9614C86.9552 77.5944 86.2763 76.7984 85.4949 74.0786C85.4949 71.316 85.799 70.6354 87.4401 68.4572C89.2459 67.0293 91.103 65.6668 92.9921 64.354C94.4778 63.313 94.4778 63.313 95.9935 62.2511C99.3347 59.9888 100.88 59.6105 104.947 59.9225Z" fill="#FEFDF9"/>
<path d="M221.012 271.987C223.442 273.354 224.121 274.15 224.903 276.87C224.903 279.617 224.654 280.373 222.957 282.492C220.283 283.938 220.283 283.938 217.122 285.282C216.079 285.732 215.035 286.182 213.961 286.646C210.213 288.184 207.589 288.74 203.505 288.4C201.362 286.654 200.988 285.549 200.506 282.82C201.063 279.662 202.247 279.096 204.802 277.24C206.824 276.228 208.881 275.288 210.962 274.408C212.557 273.722 212.557 273.722 214.184 273.021C216.755 272.116 218.349 271.645 221.012 271.987Z" fill="#FAFDFB"/>
<path d="M209.33 48.1053C212.417 49.1388 212.417 49.1388 215.611 50.5262C217.2 51.2002 217.2 51.2002 218.82 51.8879C221.435 53.2459 223.059 54.3435 224.891 56.64C225.374 59.2472 225.133 60.2121 223.676 62.4255C222.298 63.8616 222.298 63.8616 221.001 64.5181C216.583 64.2933 213.15 63.2254 209.127 61.3997C208.127 60.9562 207.126 60.5128 206.095 60.0559C203.612 58.6748 202.369 57.7396 200.9 55.3269C200.536 53.3574 200.536 53.3574 200.9 51.3878C203.338 47.8405 205.229 47.7639 209.33 48.1053Z" fill="#FBFDFE"/>
<path d="M53.0745 202.673C55.6038 203.153 56.4279 203.812 58.2617 205.668C59.8549 208.802 59.8549 208.802 61.3822 212.48C61.8946 213.69 62.4069 214.9 62.9348 216.147C64.5096 220.628 64.5096 220.628 64.0974 223.394C62.9303 225.167 62.0979 226.376 60.207 227.333C58.3833 227.58 58.3833 227.58 56.3165 227.333C53.1212 224.748 51.8387 221.707 50.2782 217.937C49.826 216.87 49.3738 215.803 48.9079 214.703C47.9095 211.646 47.568 209.512 47.8872 206.325C49.4701 204.062 50.3704 203.186 53.0745 202.673Z" fill="#FDFBFB"/>
<path d="M177.893 173.757C180.162 174.167 180.162 174.167 182.067 175.48C183.834 178.083 183.842 179.603 183.404 182.702C182.432 184.343 182.432 184.343 180.811 185.328C177.751 185.77 176.249 185.763 173.678 183.974C172.038 181.534 171.871 180.346 172.382 177.45C174.062 175.026 175.002 174.279 177.893 173.757Z" fill="#BF3C2D"/>
<path d="M157.479 174.167C159.873 175.869 160.61 176.82 161.127 179.747C160.721 182.045 160.721 182.045 159.424 183.974C156.854 185.763 155.352 185.77 152.292 185.328C150.671 184.343 150.671 184.343 149.698 182.702C149.261 179.603 149.268 178.083 151.036 175.48C153.445 173.819 154.619 173.65 157.479 174.167Z" fill="#EEC31B"/>
<path d="M449.513 135.352H423.056V204H407.089V135.352H380.632V121.249H449.513V135.352ZM529.366 121.249V204H513.399V168.685H475.869V204H459.786V121.249H475.869V154.699H513.399V121.249H529.366ZM604.088 189.897V204H546.629V121.249H603.039V135.352H562.713V155.282H597.561V168.336H562.713V189.897H604.088ZM693.927 142.928C693.383 142.384 692.373 141.646 690.897 140.713C689.498 139.781 687.75 138.887 685.652 138.033C683.632 137.178 681.418 136.44 679.009 135.818C676.6 135.119 674.153 134.769 671.666 134.769C667.315 134.769 664.013 135.585 661.759 137.217C659.584 138.849 658.496 141.141 658.496 144.093C658.496 146.347 659.195 148.134 660.594 149.455C661.993 150.775 664.09 151.902 666.888 152.835C669.685 153.767 673.181 154.777 677.377 155.865C682.816 157.186 687.517 158.817 691.48 160.76C695.52 162.625 698.589 165.111 700.687 168.219C702.863 171.249 703.951 175.29 703.951 180.34C703.951 184.769 703.135 188.577 701.503 191.762C699.871 194.87 697.618 197.395 694.743 199.338C691.868 201.28 688.605 202.718 684.953 203.65C681.301 204.505 677.416 204.932 673.298 204.932C669.18 204.932 665.062 204.505 660.944 203.65C656.825 202.796 652.863 201.591 649.055 200.037C645.248 198.406 641.752 196.463 638.566 194.21L645.676 180.34C646.375 181.04 647.618 181.972 649.405 183.138C651.192 184.225 653.368 185.352 655.932 186.517C658.496 187.605 661.293 188.538 664.324 189.315C667.354 190.092 670.423 190.48 673.531 190.48C677.882 190.48 681.184 189.742 683.438 188.266C685.691 186.789 686.818 184.692 686.818 181.972C686.818 179.486 685.924 177.543 684.137 176.145C682.35 174.746 679.864 173.542 676.678 172.531C673.492 171.444 669.724 170.278 665.372 169.035C660.167 167.559 655.815 165.927 652.319 164.14C648.822 162.275 646.219 159.944 644.51 157.147C642.801 154.35 641.946 150.853 641.946 146.657C641.946 140.985 643.267 136.246 645.909 132.438C648.628 128.553 652.28 125.64 656.864 123.697C661.449 121.677 666.538 120.667 672.132 120.667C676.017 120.667 679.669 121.094 683.088 121.949C686.585 122.803 689.848 123.93 692.878 125.329C695.909 126.727 698.628 128.242 701.037 129.874L693.927 142.928ZM716.104 204V121.249H732.188V204H716.104ZM816.936 204V149.688L795.724 190.131H786.749L765.537 149.688V204H749.453V121.249H766.703L791.178 168.336L815.887 121.249H833.02V204H816.936ZM885.611 204.583C879.55 204.583 874.034 203.417 869.061 201.086C864.166 198.755 859.931 195.608 856.357 191.646C852.86 187.605 850.141 183.099 848.198 178.126C846.256 173.075 845.285 167.908 845.285 162.625C845.285 157.108 846.295 151.863 848.315 146.89C850.413 141.84 853.249 137.372 856.823 133.487C860.475 129.525 864.749 126.417 869.644 124.163C874.616 121.832 880.055 120.667 885.961 120.667C891.944 120.667 897.383 121.871 902.278 124.28C907.25 126.688 911.485 129.913 914.982 133.953C918.478 137.994 921.198 142.5 923.14 147.473C925.083 152.446 926.054 157.574 926.054 162.858C926.054 168.297 925.044 173.542 923.024 178.592C921.003 183.565 918.167 188.033 914.515 191.995C910.941 195.88 906.668 198.949 901.695 201.203C896.8 203.456 891.438 204.583 885.611 204.583ZM861.602 162.625C861.602 166.199 862.146 169.657 863.233 172.998C864.321 176.339 865.875 179.33 867.895 181.972C869.993 184.536 872.519 186.595 875.471 188.149C878.501 189.625 881.92 190.364 885.728 190.364C889.613 190.364 893.07 189.587 896.1 188.033C899.131 186.401 901.656 184.264 903.676 181.622C905.696 178.903 907.212 175.911 908.222 172.648C909.309 169.307 909.853 165.966 909.853 162.625C909.853 159.051 909.271 155.632 908.105 152.368C907.017 149.027 905.424 146.075 903.327 143.511C901.306 140.869 898.781 138.81 895.751 137.333C892.798 135.779 889.457 135.002 885.728 135.002C881.765 135.002 878.268 135.818 875.238 137.45C872.285 139.004 869.799 141.102 867.779 143.744C865.759 146.385 864.205 149.338 863.117 152.601C862.107 155.865 861.602 159.206 861.602 162.625ZM954.476 150.853V204H938.392V121.249H951.212L993.986 175.795V121.366H1010.07V204H996.667L954.476 150.853ZM1089.67 204.583C1084.3 204.583 1079.21 203.495 1074.4 201.319C1069.66 199.144 1065.46 196.152 1061.81 192.345C1058.24 188.46 1055.44 183.953 1053.42 178.825C1051.4 173.697 1050.39 168.141 1050.39 162.159C1050.39 156.486 1051.4 151.164 1053.42 146.191C1055.44 141.141 1058.27 136.712 1061.93 132.904C1065.58 129.097 1069.85 126.106 1074.75 123.93C1079.64 121.755 1084.96 120.667 1090.71 120.667C1098.48 120.667 1105.13 122.337 1110.64 125.678C1116.24 128.942 1120.43 133.293 1123.23 138.732L1111.23 147.59C1109.13 143.472 1106.18 140.325 1102.37 138.149C1098.64 135.974 1094.56 134.886 1090.13 134.886C1086.64 134.886 1083.45 135.624 1080.57 137.1C1077.7 138.577 1075.21 140.597 1073.12 143.161C1071.02 145.725 1069.39 148.678 1068.22 152.019C1067.13 155.36 1066.59 158.895 1066.59 162.625C1066.59 166.587 1067.17 170.239 1068.34 173.58C1069.58 176.922 1071.29 179.835 1073.47 182.322C1075.72 184.808 1078.32 186.789 1081.27 188.266C1084.23 189.664 1087.49 190.364 1091.06 190.364C1095.26 190.364 1099.26 189.276 1103.07 187.1C1106.95 184.925 1110.57 181.739 1113.91 177.543V193.394C1106.99 200.853 1098.91 204.583 1089.67 204.583ZM1112.74 173.231H1096.08V161.459H1126.03V204H1112.74V173.231ZM1162.23 121.249H1178.55L1208.97 204H1192.42L1184.72 183.371H1155.82L1148.24 204H1131.69L1162.23 121.249ZM1181.81 172.065L1170.39 137.916L1158.5 172.065H1181.81ZM1285.53 204V149.688L1264.31 190.131H1255.34L1234.13 149.688V204H1218.04V121.249H1235.29L1259.77 168.336L1284.48 121.249H1301.61V204H1285.53ZM1376.35 189.897V204H1318.89V121.249H1375.3V135.352H1334.97V155.282H1369.82V168.336H1334.97V189.897H1376.35Z" fill="white"/>
</svg>
